<svg xmlns="http://www.w3.org/2000/svg" width="340.271" height="28.755" viewBox="0 0 340.271 28.755">
  <g id="g915" transform="translate(-264 401.825)">
    <path id="path881" d="M608.721-401.347c-1.991.781-3.077,1.992-3.123,3.593-.045,1.679.95,2.3,1.177.7s1.267-1.953,3.983-1.367a13.84,13.84,0,0,0,4.345.234l2.037-.234-1.4,1.679a9.817,9.817,0,0,0-1.946,4.335c-.5,2.617-.5,2.617-1.946,2.617a4.623,4.623,0,0,0-2.761.976l-1.267.976,1.946-.234c1.629-.234,2.127-.117,3.032.625a2.965,2.965,0,0,1,1.131,1.8c0,.82-.181.9-1.312.7-1.312-.234-3.213.352-3.213,1.015,0,.234.588.391,1.312.391,2.625,0,3.8,2.226,2.489,4.726-.634,1.211-3.032,3.359-5.567,4.921-.09.078-.09.234.09.352a10.44,10.44,0,0,0,3.168-.781,43.4,43.4,0,0,1,6.155-1.484,13.105,13.105,0,0,1,6.291.2,22.269,22.269,0,0,1,4.661,1.6l1.584.937,2.58-2.148c1.4-1.172,2.444-2.3,2.308-2.539-.181-.2-.724-.039-1.312.469l-1,.82-2.67-1.25c-2.58-1.172-2.851-1.211-7.06-1.055l-4.39.2,2.172-1.679a17.878,17.878,0,0,0,3.439-3.749l1.358-2.07-.091-6.093c-.136-6.093-.136-6.132,1.041-7.108a6.164,6.164,0,0,1,2.489-1.25c1.674-.312,1.267-.976-.634-.976-2.172,0-5.34,1.562-6.381,3.085-.951,1.406-1,2.343-.724,9.608.136,3.281,0,4.179-.769,5.7-.905,1.758-3.937,5.038-4.661,5.038-.226,0,.226-.937.905-2.07,1.946-3.085,2.444-6.054,1.856-10.858-.588-5.038-.226-6.6,2.037-8.592,1.855-1.64,1.81-2.3-.045-1.6-1.584.625-4.028.586-7.015-.117C610.079-402.011,610.4-401.971,608.721-401.347Z" transform="translate(-187.001 0)" fill="#164869"/>
    <path id="path883" d="M845.993-398.42c-.226.273-1.675,6.054-3.258,12.849-2.9,12.5-3.258,13.357-5.114,13.357-.362,0-.5.117-.317.273.453.391,6.155.43,6.155.039,0-.156-.362-.312-.86-.312-1.674,0-1.9-.859-1.177-3.867.362-1.562.679-2.851.679-2.89a25.65,25.65,0,0,1,5.34.273,6.657,6.657,0,0,1,.95,2.656c.317,1.367.634,2.773.769,3.124.181.508,0,.7-.679.7-.543,0-.95.117-.95.312,0,.43,7.151.508,7.467.039.181-.2-.136-.351-.634-.351a1.126,1.126,0,0,1-1.177-.9c-.136-.469-1.539-6.132-3.168-12.576C846.807-398.3,846.536-399.2,845.993-398.42Zm.136,13.318c.543,2.265,1.086,4.413,1.222,4.765.226.625-.091.7-2.444.7h-2.67l1.177-5.077c.634-2.773,1.267-4.921,1.448-4.765A25.426,25.426,0,0,1,846.129-385.1Z" transform="translate(-313.8 -1.95)"/>
    <path id="path885" d="M267.032-397.237a6.368,6.368,0,0,0-2.942,5.858c.272,2.539,1.267,4.1,4.48,7.3,3.937,3.906,5.386,6.21,5.386,8.592,0,2.656-.905,3.71-3.123,3.71-2.625,0-5.114-2.695-5.748-6.21-.543-2.929-1.086-1.679-1.086,2.5a16.49,16.49,0,0,0,.272,4.1,1.891,1.891,0,0,0,.905-.7c.543-.625.679-.625,2.4.2a7.266,7.266,0,0,0,8.6-1.211c.86-.781,1.177-1.562,1.312-3.32.226-2.929-1.041-5.507-4.526-9.061-4.028-4.1-4.8-5.155-5.25-6.913-.634-2.382,0-4.14,1.72-4.765,2.4-.859,4.526.937,5.521,4.609.317,1.133.724,2.031.905,2.031.226,0,.362-1.718.362-3.828-.045-3.4-.091-3.71-.679-3.046-.634.742-.724.742-2.263.117A7.862,7.862,0,0,0,267.032-397.237Z" transform="translate(0 -2.392)"/>
    <path id="path887" d="M334.216-396.477c-2.127,1.914-2.761,3.984-3.077,10.037-.362,7.577,1.222,13.006,4.209,14.607a5.232,5.232,0,0,0,5.069.2c.634-.391,1.086-.469,1.267-.2.769,1.055,1.131.078,1.131-3.164,0-2.226-.181-3.437-.453-3.281a1.168,1.168,0,0,0-.453.937,14.473,14.473,0,0,1-.679,2.695c-.86,2.382-2.353,3.515-3.8,2.812-1.991-.9-1.991-.664-1.856-22.535,0-1.679,1.765-3.437,3.032-3.085.905.273,2.4,2.695,3.032,5.077.5,1.718.86.9.815-1.8,0-4.179,0-4.14-.769-3.281-.634.7-.724.7-1.493.117a4.75,4.75,0,0,0-2.58-.664C336.207-398,335.573-397.727,334.216-396.477Z" transform="translate(-36.726 -2.331)"/>
    <path id="path889" d="M391.414-397.609c-.181.234.226.391.86.391h1.177v25.386h-1.177c-.634,0-1.041.156-.905.312.272.391,7.377.312,7.829-.039.136-.156-.136-.273-.679-.273-1,0-1-.078-1-6.8v-6.8l2.715-.156,2.715-.117v6.913c0,6.952,0,6.952-1,6.952-.815.039-.905.078-.362.351.815.391,7.015.352,7.513-.078.181-.156-.226-.273-.86-.273h-1.222v-12.693c0-12.42,0-12.693.905-12.693.5,0,.905-.2.905-.391,0-.234-1.584-.391-3.847-.391s-3.847.156-3.847.391c0,.2.407.391.905.391.86,0,.905.273.905,5.468v5.468h-5.431v-5.468c0-5.194.045-5.468.905-5.468.5,0,.905-.2.905-.391,0-.234-1.584-.391-3.8-.391C393.4-398,391.549-397.844,391.414-397.609Z" transform="translate(-69.711 -2.331)"/>
    <path id="path891" d="M471.485-396.789c-2.172,1.679-2.987,4.14-3.259,10.155-.5,10.037,2.082,15.583,7.2,15.583a6.516,6.516,0,0,0,5.386-3.71c1.674-3.32,2.218-10.936,1.131-16.247-1.086-5.116-2.851-6.991-6.653-6.991A4.949,4.949,0,0,0,471.485-396.789Zm5.25-.078,1.086.742.136,10.975c.09,9.334.045,11.131-.588,12.146a1.984,1.984,0,0,1-2.037,1.172c-2.806,0-2.9-.976-2.715-22.574a2.964,2.964,0,0,1,1.131-2.226C475.06-397.8,475.377-397.844,476.735-396.867Z" transform="translate(-111.767 -2.331)"/>
    <path id="path893" d="M541.478-396.789c-2.127,1.64-2.942,4.14-3.258,10.155-.272,5.585.272,9.256,1.9,12.342,2.4,4.531,8.237,4.3,10.681-.469,1.674-3.32,2.218-10.936,1.131-16.247-1.086-5.116-2.851-6.991-6.653-6.991A4.949,4.949,0,0,0,541.478-396.789Zm5.25-.078,1.086.742.136,11.092c.091,12.3,0,12.928-2.489,13.123-2.987.273-3.032-.117-2.851-22.692,0-1.055,1.72-3.007,2.625-3.007A4.3,4.3,0,0,1,546.728-396.867Z" transform="translate(-150.08 -2.331)"/>
    <path id="path895" d="M701.414-397.609c-.181.234.226.391.86.391h1.177v25.386h-1.177c-.634,0-1.041.156-.905.351.362.469,10.771.234,11.9-.273,1.629-.781,2.851-3.515,2.851-6.366-.045-3.007-1-4.843-3.078-6.054-1.358-.82-1.4-.9-.543-1.133a5.261,5.261,0,0,0,2.036-1.953,8.122,8.122,0,0,0,.362-7.928c-1.267-2.226-3.078-2.812-8.6-2.812C703.722-398,701.549-397.844,701.414-397.609Zm9.73,1.133a22.915,22.915,0,0,1,.453,5.468c0,5.194-.317,5.9-2.761,5.9h-1.312v-12.107h1.584C710.193-397.219,710.782-396.985,711.144-396.477Zm-.045,12.693c.271.273.5,2.812.588,5.663.091,4.726.045,5.233-.769,5.741a4.4,4.4,0,0,1-2.127.547h-1.267v-6.21c0-4.53.136-6.249.543-6.366A3.961,3.961,0,0,1,711.1-383.784Z" transform="translate(-239.415 -2.331)"/>
    <path id="path897" d="M776.478-396.789c-2.172,1.679-2.987,4.14-3.259,10.155-.272,5.624.271,9.3,1.9,12.342,2.4,4.531,8.237,4.3,10.681-.469,1.674-3.32,2.218-10.936,1.131-16.247-1.086-5.116-2.851-6.991-6.653-6.991A4.949,4.949,0,0,0,776.478-396.789Zm5.25-.078,1.086.742.136,11.092c.09,12.3,0,12.928-2.489,13.123-2.715.234-2.851-.273-2.851-12.732V-395.7l1.131-.937C780.053-397.8,780.37-397.844,781.728-396.867Z" transform="translate(-278.726 -2.331)"/>
    <path id="path899" d="M910.342-397.576c-.181.234.226.391.86.391h1.177V-371.8h-1.222c-.634,0-1.086.117-.905.234.407.391,6.336.508,7.332.156.86-.312.86-.351-.091-.351-1.041-.039-1.041-.078-1.041-6.64,0-6.171.045-6.6.86-6.8a4.382,4.382,0,0,1,1.946.273c1,.43,1.041.7,1.267,5.7.272,5.858.815,7.382,2.851,7.967,1.675.508,3.666-.391,3.847-1.719.091-.937.091-.937-.543-.234a1.528,1.528,0,0,1-1.4.508c-.543-.2-.679-1.094-.679-5.312,0-4.882-.045-5.116-1.177-6.249a3.821,3.821,0,0,0-1.9-1.211c-.453,0-.181-.312.724-.781,4.118-2.187,3.53-9.92-.815-11.209C919.484-398.045,910.749-398.123,910.342-397.576Zm9.459,1.133c.679.625.815,1.484.769,4.96-.045,4.687-.543,5.624-2.851,5.624h-1.267v-11.326h1.267A3.512,3.512,0,0,1,919.8-396.444Z" transform="translate(-353.756 -2.364)"/>
    <path id="path901" d="M982-397.6c-.226.273.09.43.815.43h1.177v25.386l-1.222.039-1.267.039,1.131.273a28.692,28.692,0,0,0,5.159.2c5.25-.2,6.472-.781,7.875-3.867,1.991-4.257,1.81-15.427-.362-19.606-1.267-2.539-2.534-3.007-8.192-3.164C983.9-397.988,982.179-397.871,982-397.6Zm9.775,1.094c.769.586.815,1.484.815,11.717V-373.7l-1.131.937a3.981,3.981,0,0,1-2.263.976h-1.131v-25.386h1.448A4.068,4.068,0,0,1,991.773-396.5Z" transform="translate(-392.782 -2.382)"/>
  </g>
</svg>
