<svg xmlns="http://www.w3.org/2000/svg" width="245.16" height="21.59" viewBox="0 0 245.16 21.59">
  <g id="Logo" transform="translate(-264 401.825)">
    <path id="path881" d="M607.985-401.466c-1.522.586-2.352,1.5-2.387,2.7-.035,1.261.726,1.73.9.528s.969-1.466,3.044-1.026a10.764,10.764,0,0,0,3.321.176l1.557-.176-1.072,1.261a7.311,7.311,0,0,0-1.487,3.255c-.38,1.965-.38,1.965-1.487,1.965a3.573,3.573,0,0,0-2.11.733l-.969.733,1.487-.176c1.245-.176,1.626-.088,2.318.469a2.22,2.22,0,0,1,.865,1.349c0,.616-.138.674-1,.528-1-.176-2.456.264-2.456.762,0,.176.45.293,1,.293,2.006,0,2.906,1.671,1.9,3.548a13.8,13.8,0,0,1-4.255,3.695c-.069.059-.069.176.069.264a8.1,8.1,0,0,0,2.422-.586,33.668,33.668,0,0,1,4.7-1.114,10.191,10.191,0,0,1,4.808.147,17.23,17.23,0,0,1,3.563,1.2l1.211.7,1.972-1.613c1.072-.88,1.868-1.73,1.764-1.906-.138-.147-.553-.029-1,.352l-.761.616-2.041-.938c-1.972-.88-2.179-.909-5.4-.792l-3.355.147,1.66-1.261a13.517,13.517,0,0,0,2.629-2.815L620.438-390l-.069-4.575c-.1-4.575-.1-4.6.8-5.337a4.745,4.745,0,0,1,1.9-.938c1.28-.235.969-.733-.484-.733a7.174,7.174,0,0,0-4.877,2.317c-.727,1.056-.761,1.759-.554,7.214.1,2.463,0,3.138-.588,4.281-.692,1.32-3.009,3.783-3.563,3.783-.173,0,.173-.7.692-1.554,1.487-2.317,1.868-4.545,1.418-8.152-.45-3.783-.173-4.956,1.557-6.451,1.418-1.232,1.384-1.73-.035-1.2a9.753,9.753,0,0,1-5.362-.088C609.022-401.964,609.265-401.935,607.985-401.466Z" transform="translate(-230.842 0)" fill="#164869"/>
    <path id="path883" d="M843.926-398.474c-.173.2-1.28,4.452-2.491,9.45-2.214,9.191-2.491,9.823-3.909,9.823-.277,0-.38.086-.242.2.346.287,4.7.316,4.7.029,0-.115-.277-.23-.657-.23-1.28,0-1.453-.632-.9-2.844.277-1.149.519-2.1.519-2.126a20.369,20.369,0,0,1,4.082.2,4.787,4.787,0,0,1,.726,1.953c.242,1.005.484,2.039.588,2.3.138.373,0,.517-.519.517-.415,0-.726.086-.726.23,0,.316,5.466.373,5.708.029.138-.144-.1-.258-.484-.258a.855.855,0,0,1-.9-.661c-.1-.345-1.176-4.509-2.421-9.249C844.549-398.388,844.342-399.048,843.926-398.474Zm.1,9.794c.415,1.666.83,3.246.934,3.5.173.46-.069.517-1.868.517h-2.041l.9-3.734c.484-2.039.969-3.619,1.107-3.5A18.169,18.169,0,0,1,844.03-388.68Z" transform="translate(-386.942 -1.95)"/>
    <path id="path885" d="M266.318-397.414a4.617,4.617,0,0,0-2.248,4.3c.208,1.862.969,3.008,3.425,5.358,3.01,2.865,4.116,4.556,4.116,6.3,0,1.948-.692,2.722-2.387,2.722-2.006,0-3.909-1.977-4.393-4.556-.415-2.149-.83-1.232-.83,1.834a11.623,11.623,0,0,0,.208,3.008,1.443,1.443,0,0,0,.692-.516c.415-.458.519-.458,1.833.143a5.729,5.729,0,0,0,6.573-.888,3.05,3.05,0,0,0,1-2.435c.173-2.149-.8-4.04-3.459-6.647-3.079-3.008-3.667-3.782-4.013-5.071-.484-1.748,0-3.037,1.315-3.5,1.833-.63,3.459.688,4.22,3.381.242.831.553,1.49.692,1.49a6.936,6.936,0,0,0,.277-2.808c-.035-2.493-.069-2.722-.519-2.235-.484.544-.553.544-1.73.086A6.241,6.241,0,0,0,266.318-397.414Z" transform="translate(0 -2.392)"/>
    <path id="path887" d="M333.479-396.882c-1.626,1.4-2.11,2.924-2.352,7.367-.277,5.561.934,9.545,3.217,10.72a4.144,4.144,0,0,0,3.874.143c.484-.287.83-.344.969-.143.588.774.865.057.865-2.322,0-1.634-.138-2.522-.346-2.408a.847.847,0,0,0-.346.688,10.274,10.274,0,0,1-.519,1.978c-.657,1.748-1.8,2.58-2.906,2.064-1.522-.659-1.522-.487-1.418-16.539,0-1.233,1.349-2.522,2.318-2.264.692.2,1.833,1.978,2.318,3.726.38,1.261.657.659.623-1.319,0-3.067,0-3.038-.588-2.408-.484.516-.553.516-1.142.086a3.746,3.746,0,0,0-1.972-.487A3.246,3.246,0,0,0,333.479-396.882Z" transform="translate(-43.88 -2.331)"/>
    <path id="path889" d="M391.4-397.714c-.138.172.173.286.657.286h.9v18.6h-.9c-.484,0-.8.114-.692.229.208.286,5.639.229,5.984-.029.1-.114-.1-.2-.519-.2-.761,0-.761-.057-.761-4.978v-4.978l2.076-.114,2.076-.086v5.064c0,5.093,0,5.093-.761,5.093-.623.029-.692.057-.277.257.623.286,5.362.258,5.742-.057.138-.114-.173-.2-.657-.2h-.934v-9.3c0-9.1,0-9.3.692-9.3.38,0,.692-.143.692-.286,0-.172-1.211-.286-2.94-.286s-2.94.114-2.94.286c0,.143.311.286.692.286.657,0,.692.2.692,4.005v4.005h-4.151v-4.005c0-3.805.035-4.005.692-4.005.381,0,.692-.143.692-.286,0-.172-1.211-.286-2.906-.286A9.494,9.494,0,0,0,391.4-397.714Z" transform="translate(-85.959 -2.331)"/>
    <path id="path891" d="M470.7-397.111c-1.66,1.233-2.283,3.039-2.491,7.455-.38,7.369,1.591,11.44,5.5,11.44a4.987,4.987,0,0,0,4.116-2.724c1.28-2.437,1.7-8.028.865-11.927-.83-3.756-2.179-5.132-5.085-5.132A3.884,3.884,0,0,0,470.7-397.111Zm4.013-.057.83.545.1,8.057c.069,6.853.035,8.171-.45,8.917a1.528,1.528,0,0,1-1.557.86c-2.145,0-2.214-.717-2.076-16.572a2.148,2.148,0,0,1,.865-1.634C473.436-397.857,473.678-397.885,474.716-397.169Z" transform="translate(-137.772 -2.331)"/>
    <path id="path893" d="M540.694-397.111c-1.626,1.2-2.248,3.04-2.491,7.456-.208,4.1.208,6.8,1.453,9.062,1.833,3.327,6.3,3.155,8.164-.344,1.28-2.438,1.7-8.03.865-11.93-.83-3.757-2.179-5.133-5.085-5.133A3.884,3.884,0,0,0,540.694-397.111Zm4.013-.057.83.545.1,8.144c.069,9.033,0,9.492-1.9,9.636-2.283.2-2.318-.086-2.179-16.662,0-.774,1.314-2.208,2.006-2.208A3.343,3.343,0,0,1,544.707-397.168Z" transform="translate(-184.999 -2.331)"/>
    <path id="path895" d="M701.4-397.714c-.138.172.173.286.657.286h.9v18.592h-.9c-.484,0-.8.114-.692.257.277.343,8.233.172,9.1-.2,1.245-.572,2.179-2.574,2.179-4.662-.035-2.2-.761-3.547-2.352-4.434-1.038-.6-1.072-.658-.415-.829a3.959,3.959,0,0,0,1.557-1.43,5.733,5.733,0,0,0,.277-5.806c-.969-1.63-2.352-2.059-6.573-2.059A12.949,12.949,0,0,0,701.4-397.714Zm7.437.829a16.109,16.109,0,0,1,.346,4c0,3.8-.242,4.319-2.11,4.319h-1v-8.867h1.211C708.108-397.428,708.557-397.256,708.834-396.884Zm-.035,9.3a15.186,15.186,0,0,1,.45,4.147c.069,3.461.035,3.833-.588,4.2a3.474,3.474,0,0,1-1.626.4h-.969v-4.548c0-3.318.1-4.577.415-4.662A3.134,3.134,0,0,1,708.8-387.588Z" transform="translate(-295.133 -2.331)"/>
    <path id="path897" d="M775.694-397.111c-1.661,1.233-2.283,3.04-2.491,7.456-.208,4.13.208,6.825,1.453,9.062,1.833,3.327,6.3,3.155,8.164-.344,1.28-2.438,1.7-8.03.865-11.93-.83-3.757-2.179-5.133-5.085-5.133A3.884,3.884,0,0,0,775.694-397.111Zm4.013-.057.83.545.1,8.144c.069,9.033,0,9.492-1.9,9.636-2.075.172-2.179-.2-2.179-9.349v-8.116l.865-.688C778.427-397.857,778.669-397.885,779.707-397.168Z" transform="translate(-343.578 -2.331)"/>
    <path id="path899" d="M910.311-397.675c-.138.172.173.286.657.286h.9v18.608h-.934c-.484,0-.83.086-.692.172a18.976,18.976,0,0,0,5.6.114c.657-.229.657-.258-.069-.258-.8-.029-.8-.057-.8-4.867,0-4.523.035-4.838.657-4.981a3.482,3.482,0,0,1,1.487.2c.761.315.8.515.969,4.18.208,4.294.623,5.411,2.179,5.84,1.28.372,2.8-.286,2.94-1.26.069-.687.069-.687-.415-.172a1.2,1.2,0,0,1-1.072.372c-.415-.143-.519-.8-.519-3.893,0-3.579-.035-3.75-.9-4.581a2.943,2.943,0,0,0-1.453-.887c-.346,0-.138-.229.554-.573,3.148-1.6,2.7-7.272-.623-8.216C917.3-398.018,910.622-398.076,910.311-397.675Zm7.23.83c.519.458.623,1.088.588,3.636-.035,3.435-.415,4.122-2.179,4.122h-.969v-8.3h.969A2.756,2.756,0,0,1,917.541-396.845Z" transform="translate(-437.599 -2.364)"/>
    <path id="path901" d="M981.881-397.683c-.173.2.069.314.623.314h.9V-378.8l-.934.029-.969.029.865.2a22.9,22.9,0,0,0,3.944.143c4.013-.143,4.947-.571,6.019-2.829,1.522-3.114,1.384-11.286-.277-14.344-.969-1.857-1.937-2.2-6.261-2.314C983.333-397.968,982.019-397.883,981.881-397.683Zm7.472.8c.588.429.623,1.086.623,8.572v8.115l-.865.686a3.114,3.114,0,0,1-1.73.714h-.865v-18.572h1.107A3.21,3.21,0,0,1,989.352-396.883Z" transform="translate(-484.227 -2.382)"/>
  </g>
</svg>
