<svg xmlns="http://www.w3.org/2000/svg" width="245.38" height="21.074" viewBox="0 0 245.38 21.074">
  <g id="whiteLogo" transform="translate(-264 401.825)">
    <path id="path881" d="M607.573-401.474a2.929,2.929,0,0,0-1.975,2.633c-.029,1.231.6,1.689.744.515s.8-1.431,2.519-1a7.58,7.58,0,0,0,2.748.172l1.288-.172-.887,1.231a7.776,7.776,0,0,0-1.231,3.177c-.315,1.918-.315,1.918-1.231,1.918a2.683,2.683,0,0,0-1.746.716l-.8.716,1.231-.172c1.03-.172,1.345-.086,1.918.458a2.251,2.251,0,0,1,.716,1.317c0,.6-.115.658-.83.515-.83-.172-2.032.258-2.032.744,0,.172.372.286.83.286,1.66,0,2.4,1.632,1.574,3.463a12.291,12.291,0,0,1-3.521,3.606c-.057.057-.057.172.057.258a5.853,5.853,0,0,0,2-.572,24.377,24.377,0,0,1,3.893-1.088,7.192,7.192,0,0,1,3.979.143,12.844,12.844,0,0,1,2.948,1.174l1,.687,1.632-1.574c.887-.859,1.546-1.689,1.46-1.861-.115-.143-.458-.029-.83.343l-.63.6-1.689-.916c-1.631-.859-1.8-.887-4.465-.773l-2.776.143,1.374-1.231a12.607,12.607,0,0,0,2.175-2.748l.859-1.517-.057-4.465c-.086-4.465-.086-4.494.658-5.209a3.723,3.723,0,0,1,1.574-.916c1.059-.229.8-.716-.4-.716a5.637,5.637,0,0,0-4.036,2.261c-.6,1.03-.63,1.717-.458,7.041.086,2.4,0,3.063-.487,4.179-.572,1.288-2.49,3.692-2.948,3.692-.143,0,.143-.687.572-1.517,1.231-2.261,1.546-4.437,1.174-7.957-.372-3.692-.143-4.837,1.288-6.3,1.174-1.2,1.145-1.689-.029-1.174a6.893,6.893,0,0,1-4.437-.086C608.431-401.961,608.632-401.932,607.573-401.474Z" transform="translate(-228.841 0)" fill="#fff"/>
    <path id="path883" d="M842.77-398.474c-.143.2-1.059,4.437-2.061,9.417-1.832,9.159-2.061,9.789-3.234,9.789-.229,0-.315.086-.2.2.286.286,3.893.315,3.893.029,0-.115-.229-.229-.544-.229-1.059,0-1.2-.63-.744-2.834.229-1.145.429-2.089.429-2.118a14.032,14.032,0,0,1,3.378.2,5.367,5.367,0,0,1,.6,1.946c.2,1,.4,2.032.487,2.29.114.372,0,.515-.429.515-.343,0-.6.086-.6.229,0,.315,4.522.372,4.723.029.115-.143-.086-.258-.4-.258a.738.738,0,0,1-.744-.658c-.086-.343-.973-4.494-2-9.217C843.285-398.389,843.113-399.047,842.77-398.474Zm.086,9.76c.344,1.66.687,3.234.773,3.492.143.458-.057.515-1.546.515h-1.689l.744-3.721a13.062,13.062,0,0,1,.916-3.492A20.9,20.9,0,0,1,842.856-388.714Z" transform="translate(-384.874 -2.284)" fill="#fff"/>
    <path id="path885" d="M265.918-397.414a4.926,4.926,0,0,0-1.861,4.293c.172,1.86.8,3.005,2.834,5.352,2.49,2.862,3.406,4.551,3.406,6.3,0,1.946-.572,2.719-1.975,2.719-1.66,0-3.234-1.975-3.635-4.551-.343-2.147-.687-1.231-.687,1.832a13.949,13.949,0,0,0,.172,3.005c.115,0,.372-.229.572-.515.343-.458.429-.458,1.517.143a4.134,4.134,0,0,0,5.438-.887,3.366,3.366,0,0,0,.83-2.433c.143-2.147-.658-4.036-2.862-6.641-2.547-3.005-3.034-3.778-3.32-5.066-.4-1.746,0-3.034,1.088-3.492,1.517-.63,2.862.687,3.492,3.378a3.387,3.387,0,0,0,.572,1.488,8.274,8.274,0,0,0,.229-2.805c-.029-2.49-.057-2.719-.429-2.233-.4.544-.458.544-1.431.086A4.352,4.352,0,0,0,265.918-397.414Z" transform="translate(0 -2.801)" fill="#fff"/>
    <path id="path887" d="M333.066-396.884c-1.345,1.4-1.746,2.92-1.946,7.356-.229,5.553.773,9.531,2.662,10.7a2.918,2.918,0,0,0,3.206.143c.4-.286.687-.343.8-.143.487.773.716.057.716-2.318,0-1.632-.114-2.519-.286-2.4a.908.908,0,0,0-.286.687,12.021,12.021,0,0,1-.429,1.975c-.544,1.746-1.488,2.576-2.4,2.061-1.259-.658-1.259-.487-1.174-16.515,0-1.231,1.116-2.519,1.918-2.261.572.2,1.517,1.975,1.918,3.721.315,1.259.544.658.515-1.317,0-3.063,0-3.034-.487-2.4-.4.515-.458.515-.945.086a2.7,2.7,0,0,0-1.632-.487C334.325-398,333.925-397.8,333.066-396.884Z" transform="translate(-47.885 -2.73)" fill="#fff"/>
    <path id="path889" d="M391.387-397.714c-.115.172.143.286.544.286h.744v18.6h-.744c-.4,0-.658.114-.572.229.172.286,4.666.229,4.952-.029.086-.115-.086-.2-.429-.2-.63,0-.63-.057-.63-4.98v-4.98l1.717-.115,1.717-.086v5.066c0,5.095,0,5.095-.63,5.095-.515.029-.572.057-.229.258.515.286,4.437.258,4.751-.057.115-.115-.143-.2-.544-.2h-.773v-9.3c0-9.1,0-9.3.572-9.3.315,0,.572-.143.572-.286,0-.172-1-.286-2.433-.286s-2.433.115-2.433.286c0,.143.258.286.572.286.544,0,.572.2.572,4.007v4.007h-3.435v-4.007c0-3.807.029-4.007.572-4.007.315,0,.572-.143.572-.286,0-.172-1-.286-2.4-.286A6.574,6.574,0,0,0,391.387-397.714Z" transform="translate(-85.5 -2.73)" fill="#fff"/>
    <path id="path891" d="M470.265-397.113c-1.374,1.231-1.889,3.034-2.061,7.442-.315,7.356,1.317,11.421,4.551,11.421a4.168,4.168,0,0,0,3.406-2.719c1.059-2.433,1.4-8.014.716-11.907-.687-3.75-1.8-5.124-4.208-5.124A2.863,2.863,0,0,0,470.265-397.113Zm3.32-.057.687.544.086,8.043c.057,6.841.029,8.158-.372,8.9-.343.658-.63.859-1.288.859-1.775,0-1.832-.716-1.717-16.544A2.307,2.307,0,0,1,471.7-397C472.526-397.857,472.727-397.885,473.585-397.17Z" transform="translate(-137.174 -2.73)" fill="#fff"/>
    <path id="path893" d="M540.256-397.113c-1.345,1.2-1.86,3.034-2.061,7.442-.172,4.093.172,6.784,1.2,9.045,1.517,3.32,5.209,3.149,6.755-.343,1.059-2.433,1.4-8.014.716-11.907-.687-3.75-1.8-5.124-4.208-5.124A2.863,2.863,0,0,0,540.256-397.113Zm3.32-.057.687.544.086,8.129c.057,9.016,0,9.474-1.574,9.617-1.889.2-1.918-.086-1.8-16.63,0-.773,1.088-2.2,1.66-2.2A2.577,2.577,0,0,1,543.576-397.17Z" transform="translate(-184.196 -2.73)" fill="#fff"/>
    <path id="path895" d="M701.387-397.714c-.115.172.143.286.544.286h.744v18.6h-.744c-.4,0-.658.114-.572.258.229.343,6.812.172,7.528-.2,1.03-.572,1.8-2.576,1.8-4.666-.029-2.2-.63-3.549-1.946-4.437-.859-.6-.887-.658-.343-.83a3.58,3.58,0,0,0,1.288-1.431,6.78,6.78,0,0,0,.229-5.81c-.8-1.632-1.946-2.061-5.438-2.061A8.937,8.937,0,0,0,701.387-397.714Zm6.154.83a19.369,19.369,0,0,1,.286,4.007c0,3.807-.2,4.322-1.746,4.322h-.83v-8.873h1C706.94-397.428,707.312-397.256,707.541-396.884Zm-.029,9.3a18.215,18.215,0,0,1,.372,4.15c.057,3.463.029,3.835-.487,4.208a2.49,2.49,0,0,1-1.345.4h-.8v-4.551c0-3.32.086-4.58.343-4.666A2.236,2.236,0,0,1,707.513-387.581Z" transform="translate(-293.814 -2.73)" fill="#fff"/>
    <path id="path897" d="M775.256-397.113c-1.374,1.231-1.889,3.034-2.061,7.442-.172,4.122.172,6.812,1.2,9.045,1.517,3.32,5.209,3.149,6.755-.343,1.059-2.433,1.4-8.014.716-11.907-.687-3.75-1.8-5.124-4.208-5.124A2.863,2.863,0,0,0,775.256-397.113Zm3.32-.057.687.544.086,8.129c.057,9.016,0,9.474-1.574,9.617-1.717.172-1.8-.2-1.8-9.331v-8.1l.716-.687C777.517-397.857,777.717-397.885,778.576-397.17Z" transform="translate(-342.086 -2.73)" fill="#fff"/>
    <path id="path899" d="M910.294-397.675c-.115.172.143.286.544.286h.744v18.6h-.773c-.4,0-.687.086-.572.172a13.032,13.032,0,0,0,4.637.115c.544-.229.544-.258-.057-.258-.658-.029-.658-.057-.658-4.866,0-4.522.029-4.837.544-4.98a2.424,2.424,0,0,1,1.231.2c.63.315.658.515.8,4.179.172,4.293.515,5.41,1.8,5.839a1.838,1.838,0,0,0,2.433-1.259c.057-.687.057-.687-.343-.172a.894.894,0,0,1-.887.372c-.344-.143-.429-.8-.429-3.893,0-3.578-.029-3.75-.744-4.58a2.39,2.39,0,0,0-1.2-.887c-.286,0-.115-.229.458-.572,2.6-1.6,2.233-7.27-.515-8.215C916.076-398.018,910.551-398.076,910.294-397.675Zm5.982.83c.429.458.515,1.088.487,3.635-.029,3.435-.343,4.122-1.8,4.122h-.8v-8.3h.8A2.044,2.044,0,0,1,916.276-396.845Z" transform="translate(-431.072 -2.769)" fill="#fff"/>
    <path id="path901" d="M981.815-397.682c-.143.2.057.315.515.315h.744v18.6l-.773.029-.8.029.716.2a15.691,15.691,0,0,0,3.263.143c3.32-.143,4.093-.572,4.98-2.834,1.259-3.12,1.145-11.306-.229-14.369-.8-1.861-1.6-2.2-5.181-2.318C983.017-397.969,981.929-397.883,981.815-397.682Zm6.183.8c.487.429.515,1.088.515,8.587v8.129l-.716.687a2.357,2.357,0,0,1-1.431.716h-.716v-18.6h.916A2.328,2.328,0,0,1,988-396.881Z" transform="translate(-481.956 -2.79)" fill="#fff"/>
  </g>
</svg>
