<?xml version="1.0" encoding="UTF-8" standalone="no"?>
<svg
   xmlns:dc="http://purl.org/dc/elements/1.1/"
   xmlns:cc="http://creativecommons.org/ns#"
   xmlns:rdf="http://www.w3.org/1999/02/22-rdf-syntax-ns#"
   xmlns:svg="http://www.w3.org/2000/svg"
   xmlns="http://www.w3.org/2000/svg"
   xmlns:sodipodi="http://sodipodi.sourceforge.net/DTD/sodipodi-0.dtd"
   xmlns:inkscape="http://www.inkscape.org/namespaces/inkscape"
   version="1.0"
   width="83.82962pt"
   height="93.625pt"
   viewBox="0 0 83.829622 93.625"
   preserveAspectRatio="xMidYMid meet"
   id="svg917"
   sodipodi:docname="whiteL.svg"
   inkscape:version="0.92.3 (2405546, 2018-03-11)">
  <defs
     id="defs921">
    <clipPath
       clipPathUnits="userSpaceOnUse"
       id="clipPath861">
      <rect
         style="opacity:1;fill:#000000;fill-opacity:0.73631843;stroke:none;stroke-width:21.68503952;stroke-linecap:butt;stroke-linejoin:round;stroke-miterlimit:4;stroke-dasharray:none;stroke-opacity:1"
         id="rect863"
         width="783.4809"
         height="840.11804"
         x="5959.3413"
         y="-4065.4807"
         transform="scale(1,-1)" />
    </clipPath>
  </defs>
  <sodipodi:namedview
     pagecolor="#ffffff"
     bordercolor="#666666"
     borderopacity="1"
     objecttolerance="10"
     gridtolerance="10"
     guidetolerance="10"
     inkscape:pageopacity="0"
     inkscape:pageshadow="2"
     inkscape:window-width="1920"
     inkscape:window-height="1051"
     id="namedview919"
     showgrid="false"
     fit-margin-top="10"
     fit-margin-left="10"
     fit-margin-right="10"
     fit-margin-bottom="10"
     inkscape:zoom="0.79453125"
     inkscape:cx="454.37806"
     inkscape:cy="107.57974"
     inkscape:window-x="-9"
     inkscape:window-y="-9"
     inkscape:window-maximized="1"
     inkscape:current-layer="g915" />
  <metadata
     id="metadata879">
Created by potrace 1.15, written by Peter Selinger 2001-2017
<rdf:RDF>
  <cc:Work
     rdf:about="">
    <dc:format>image/svg+xml</dc:format>
    <dc:type
       rdf:resource="http://purl.org/dc/dcmitype/StillImage" />
    <dc:title></dc:title>
  </cc:Work>
</rdf:RDF>
</metadata>
  <g
     transform="matrix(0.1,0,0,-0.1,-820.25748,493.9489)"
     id="g915"
     style="fill:#000000;stroke:none">
    <path
       d="m 6125,4006 c -44,-20 -68,-51 -69,-92 -1,-43 21,-59 26,-18 5,41 28,50 88,35 31,-8 69,-10 96,-6 l 45,6 -31,-43 c -21,-30 -35,-66 -43,-111 -11,-67 -11,-67 -43,-67 -21,0 -43,-9 -61,-25 l -28,-25 43,6 c 36,6 47,3 67,-16 14,-13 25,-34 25,-46 0,-21 -4,-23 -29,-18 -29,6 -71,-9 -71,-26 0,-6 13,-10 29,-10 58,0 84,-57 55,-121 -14,-31 -67,-86 -123,-126 -2,-2 -2,-6 2,-9 3,-3 35,6 70,20 35,14 97,31 136,38 63,11 81,10 139,-5 37,-10 83,-28 103,-41 l 35,-24 57,55 c 31,30 54,59 51,65 -4,5 -16,1 -29,-12 l -22,-21 -59,32 c -57,30 -63,31 -156,27 l -97,-5 48,43 c 25,23 60,66 76,96 l 30,53 -2,156 c -3,156 -3,157 23,182 14,14 39,29 55,32 37,8 28,25 -14,25 -48,0 -118,-40 -141,-79 -21,-36 -22,-60 -16,-246 3,-84 0,-107 -17,-146 -20,-45 -87,-129 -103,-129 -5,0 5,24 20,53 43,79 54,155 41,278 -13,129 -5,169 45,220 41,42 40,59 -1,41 -35,-16 -89,-15 -155,3 -65,18 -58,17 -95,1 z"
       id="path881"
       style="fill:#ffffff;fill-opacity:1"
       inkscape:connector-curvature="0"
       clip-path="url(#clipPath861)"
       transform="translate(2246.6078,821.23902)" />
  </g>
</svg>
